STARTFONT 2.1
FONT -Adobe-Times-Bold-I-Normal--14-100-100-100-P-77-ISO8859-2
SIZE 10 100 100
FONTBOUNDINGBOX 19 16 -3 -3
COMMENT $XConsortium: timBI10.bdf,v 1.7 95/01/26 17:58:31 gildea Exp $
COMMENT 
COMMENT +
COMMENT  Copyright 1984-1989, 1994 Adobe Systems Incorporated.
COMMENT  Copyright 1988, 1994 Digital Equipment Corporation.
COMMENT
COMMENT  Adobe is a trademark of Adobe Systems Incorporated which may be
COMMENT  registered in certain jurisdictions.
COMMENT  Permission to use these trademarks is hereby granted only in
COMMENT  association with the images described in this file.
COMMENT
COMMENT  Permission to use, copy, modify, distribute and sell this software
COMMENT  and its documentation for any purpose and without fee is hereby
COMMENT  granted, provided that the above copyright notices appear in all
COMMENT  copies and that both those copyright notices and this permission
COMMENT  notice appear in supporting documentation, and that the names of
COMMENT  Adobe Systems and Digital Equipment Corporation not be used in
COMMENT  advertising or publicity pertaining to distribution of the software
COMMENT  without specific, written prior permission.  Adobe Systems and
COMMENT  Digital Equipment Corporation make no representations about the
COMMENT  suitability of this software for any purpose.  It is provided "as
COMMENT  is" without express or implied warranty.
COMMENT -
COMMENT  
COMMENT  Translation to ISO8859-2 by Cub Soft;  Petr.Kolar@vslib.cz
COMMENT  
STARTPROPERTIES 28
FOUNDRY "Adobe"
FAMILY_NAME "Times"
WEIGHT_NAME "Bold"
SLANT "I"
SETWIDTH_NAME "Normal"
ADD_STYLE_NAME ""
PIXEL_SIZE 14
POINT_SIZE 100
RESOLUTION_X 100
RESOLUTION_Y 100
SPACING "P"
AVERAGE_WIDTH 77
CHARSET_REGISTRY "ISO8859"
CHARSET_ENCODING "2"
CAP_HEIGHT 10
X_HEIGHT 7
FONT_ASCENT 12
FONT_DESCENT 3
FACE_NAME "Times Bold Italic"

STARTCHAR space
ENCODING 32
SWIDTH 250 0
DWIDTH 3 0
BBX 1 1 0 0
BITMAP
00
ENDCHAR
STARTCHAR exclam
ENCODING 33
SWIDTH 389 0
DWIDTH 7 0
BBX 5 10 1 0
BITMAP
18
18
38
30
30
20
60
00
c0
c0
ENDCHAR
STARTCHAR quotedbl
ENCODING 34
SWIDTH 555 0
DWIDTH 7 0
BBX 6 4 2 6
BITMAP
6c
6c
d8
90
ENDCHAR
STARTCHAR numbersign
ENCODING 35
SWIDTH 500 0
DWIDTH 8 0
BBX 8 10 0 0
BITMAP
12
12
12
7f
24
24
fe
48
48
48
ENDCHAR
STARTCHAR dollar
ENCODING 36
SWIDTH 500 0
DWIDTH 7 0
BBX 7 12 0 -1
BITMAP
04
1c
2a
6a
78
38
1c
1c
ac
a8
70
40
ENDCHAR
STARTCHAR percent
ENCODING 37
SWIDTH 833 0
DWIDTH 14 0
BBX 12 10 1 0
BITMAP
38c0
6f80
cd00
cb00
dee0
77b0
0d30
0b30
1360
31c0
ENDCHAR
STARTCHAR ampersand
ENCODING 38
SWIDTH 778 0
DWIDTH 10 0
BBX 10 10 0 0
BITMAP
0e00
1900
1900
1a00
1dc0
6c80
cf00
c640
ef80
7b80
ENDCHAR
STARTCHAR apostrophe
ENCODING 39
SWIDTH 333 0
DWIDTH 5 0
BBX 3 4 2 6
BITMAP
60
60
20
c0
ENDCHAR
STARTCHAR parenleft
ENCODING 40
SWIDTH 333 0
DWIDTH 6 0
BBX 5 13 1 -3
BITMAP
18
30
30
60
60
60
c0
c0
c0
c0
c0
c0
60
ENDCHAR
STARTCHAR parenright
ENCODING 41
SWIDTH 333 0
DWIDTH 6 0
BBX 5 13 0 -3
BITMAP
30
18
18
18
18
18
18
30
30
30
60
60
c0
ENDCHAR
STARTCHAR asterisk
ENCODING 42
SWIDTH 500 0
DWIDTH 7 0
BBX 5 5 1 5
BITMAP
20
f8
70
f8
20
ENDCHAR
STARTCHAR plus
ENCODING 43
SWIDTH 570 0
DWIDTH 9 0
BBX 7 7 0 0
BITMAP
10
10
10
fe
10
10
10
ENDCHAR
STARTCHAR comma
ENCODING 44
SWIDTH 250 0
DWIDTH 4 0
BBX 3 4 0 -2
BITMAP
60
60
20
c0
ENDCHAR
STARTCHAR minus
ENCODING 45
SWIDTH 606 0
DWIDTH 9 0
BBX 6 1 1 3
BITMAP
fc
ENDCHAR
STARTCHAR period
ENCODING 46
SWIDTH 250 0
DWIDTH 3 0
BBX 2 2 0 0
BITMAP
c0
c0
ENDCHAR
STARTCHAR slash
ENCODING 47
SWIDTH 278 0
DWIDTH 6 0
BBX 4 10 1 0
BITMAP
10
10
30
20
20
40
40
c0
80
80
ENDCHAR
STARTCHAR zero
ENCODING 48
SWIDTH 500 0
DWIDTH 7 0
BBX 7 10 0 0
BITMAP
1c
36
66
66
46
c4
cc
cc
d8
70
ENDCHAR
STARTCHAR one
ENCODING 49
SWIDTH 500 0
DWIDTH 7 0
BBX 5 10 1 0
BITMAP
18
78
30
30
30
30
60
60
60
f0
ENDCHAR
STARTCHAR two
ENCODING 50
SWIDTH 500 0
DWIDTH 7 0
BBX 7 10 0 0
BITMAP
1c
3e
26
06
0c
18
30
64
fc
f8
ENDCHAR
STARTCHAR three
ENCODING 51
SWIDTH 500 0
DWIDTH 7 0
BBX 7 10 0 0
BITMAP
1c
2e
06
0c
38
1c
0c
cc
dc
78
ENDCHAR
STARTCHAR four
ENCODING 52
SWIDTH 500 0
DWIDTH 7 0
BBX 7 10 0 0
BITMAP
06
0e
16
2c
4c
fe
fe
18
30
30
ENDCHAR
STARTCHAR five
ENCODING 53
SWIDTH 500 0
DWIDTH 7 0
BBX 7 10 0 0
BITMAP
3e
3c
60
78
1c
0c
0c
0c
d8
f0
ENDCHAR
STARTCHAR six
ENCODING 54
SWIDTH 500 0
DWIDTH 7 0
BBX 7 10 0 0
BITMAP
0e
38
60
60
f8
cc
cc
cc
f8
70
ENDCHAR
STARTCHAR seven
ENCODING 55
SWIDTH 500 0
DWIDTH 7 0
BBX 6 10 2 0
BITMAP
fc
fc
8c
08
10
30
20
60
c0
c0
ENDCHAR
STARTCHAR eight
ENCODING 56
SWIDTH 500 0
DWIDTH 7 0
BBX 7 10 1 0
BITMAP
3c
66
66
34
38
6c
cc
cc
d8
70
ENDCHAR
STARTCHAR nine
ENCODING 57
SWIDTH 500 0
DWIDTH 7 0
BBX 7 10 0 0
BITMAP
1c
36
66
66
66
3e
0c
0c
38
e0
ENDCHAR
STARTCHAR colon
ENCODING 58
SWIDTH 333 0
DWIDTH 5 0
BBX 3 7 1 0
BITMAP
60
60
00
00
00
c0
c0
ENDCHAR
STARTCHAR semicolon
ENCODING 59
SWIDTH 333 0
DWIDTH 4 0
BBX 4 9 0 -2
BITMAP
30
30
00
00
00
60
60
20
c0
ENDCHAR
STARTCHAR less
ENCODING 60
SWIDTH 570 0
DWIDTH 8 0
BBX 6 6 1 0
BITMAP
0c
30
c0
c0
30
0c
ENDCHAR
STARTCHAR equal
ENCODING 61
SWIDTH 570 0
DWIDTH 10 0
BBX 7 3 1 2
BITMAP
fe
00
fe
ENDCHAR
STARTCHAR greater
ENCODING 62
SWIDTH 570 0
DWIDTH 8 0
BBX 6 6 1 0
BITMAP
c0
30
0c
0c
30
c0
ENDCHAR
STARTCHAR question
ENCODING 63
SWIDTH 500 0
DWIDTH 8 0
BBX 6 10 2 0
BITMAP
78
9c
cc
18
30
60
40
00
c0
c0
ENDCHAR
STARTCHAR at
ENCODING 64
SWIDTH 832 0
DWIDTH 15 0
BBX 12 12 2 -2
BITMAP
07c0
1820
2010
4750
4c90
9910
9910
9b20
8ec0
c000
6040
1f80
ENDCHAR
STARTCHAR A
ENCODING 65
SWIDTH 667 0
DWIDTH 9 0
BBX 10 10 -1 0
BITMAP
0180
0380
0380
0580
0d80
0980
1f80
2180
6180
f3c0
ENDCHAR
STARTCHAR B
ENCODING 66
SWIDTH 667 0
DWIDTH 9 0
BBX 10 10 0 0
BITMAP
3f80
18c0
18c0
3180
3f00
3380
7180
6180
6300
fe00
ENDCHAR
STARTCHAR C
ENCODING 67
SWIDTH 667 0
DWIDTH 9 0
BBX 9 10 1 0
BITMAP
1f80
3980
6100
6000
c000
c000
c000
c100
e600
7c00
ENDCHAR
STARTCHAR D
ENCODING 68
SWIDTH 722 0
DWIDTH 10 0
BBX 10 10 0 0
BITMAP
3f00
1d80
18c0
30c0
30c0
30c0
6180
6180
6700
fc00
ENDCHAR
STARTCHAR E
ENCODING 69
SWIDTH 667 0
DWIDTH 10 0
BBX 10 10 0 0
BITMAP
3fc0
18c0
1800
3100
3f00
3200
7000
6080
6180
ff00
ENDCHAR
STARTCHAR F
ENCODING 70
SWIDTH 667 0
DWIDTH 9 0
BBX 10 10 0 0
BITMAP
3fc0
18c0
1800
3100
3f00
3200
7000
6000
6000
f000
ENDCHAR
STARTCHAR G
ENCODING 71
SWIDTH 722 0
DWIDTH 10 0
BBX 9 10 1 0
BITMAP
1f80
3980
6100
6000
c000
c780
c300
c300
e600
7e00
ENDCHAR
STARTCHAR H
ENCODING 72
SWIDTH 778 0
DWIDTH 11 0
BBX 12 10 0 0
BITMAP
3cf0
1860
1860
30c0
3fc0
30c0
6180
6180
6180
f3c0
ENDCHAR
STARTCHAR I
ENCODING 73
SWIDTH 389 0
DWIDTH 5 0
BBX 8 10 -1 0
BITMAP
1f
0c
0c
18
18
18
30
30
30
f8
ENDCHAR
STARTCHAR J
ENCODING 74
SWIDTH 500 0
DWIDTH 7 0
BBX 8 11 0 -1
BITMAP
0f
06
06
0c
0c
0c
18
18
d8
f0
60
ENDCHAR
STARTCHAR K
ENCODING 75
SWIDTH 667 0
DWIDTH 11 0
BBX 11 10 0 0
BITMAP
3de0
18c0
1900
3200
3400
3c00
3600
6300
6180
f3c0
ENDCHAR
STARTCHAR L
ENCODING 76
SWIDTH 611 0
DWIDTH 9 0
BBX 8 10 0 0
BITMAP
3c
18
18
30
30
30
60
61
63
fe
ENDCHAR
STARTCHAR M
ENCODING 77
SWIDTH 889 0
DWIDTH 13 0
BBX 15 10 -1 0
BITMAP
1c0e
0c1c
1e2c
1658
1658
3698
2730
2730
6630
e478
ENDCHAR
STARTCHAR N
ENCODING 78
SWIDTH 722 0
DWIDTH 11 0
BBX 13 10 0 0
BITMAP
3c78
1c30
1c20
1660
3640
2640
23c0
6380
4180
e180
ENDCHAR
STARTCHAR O
ENCODING 79
SWIDTH 722 0
DWIDTH 10 0
BBX 9 10 1 0
BITMAP
1f00
3380
6180
6180
c180
c180
c300
c300
e600
7c00
ENDCHAR
STARTCHAR P
ENCODING 80
SWIDTH 611 0
DWIDTH 9 0
BBX 10 10 0 0
BITMAP
3f80
18c0
18c0
31c0
3f80
3000
3000
6000
6000
f000
ENDCHAR
STARTCHAR Q
ENCODING 81
SWIDTH 722 0
DWIDTH 10 0
BBX 10 13 0 -3
BITMAP
0f80
19c0
30c0
30c0
60c0
60c0
6180
6180
7300
3e00
3000
7c80
8f00
ENDCHAR
STARTCHAR R
ENCODING 82
SWIDTH 667 0
DWIDTH 10 0
BBX 10 10 0 0
BITMAP
3f80
18c0
18c0
31c0
3f80
3600
3300
6300
6180
f1c0
ENDCHAR
STARTCHAR S
ENCODING 83
SWIDTH 556 0
DWIDTH 8 0
BBX 9 10 0 0
BITMAP
1f80
3180
3100
3800
1c00
0e00
0600
8600
ce00
fc00
ENDCHAR
STARTCHAR T
ENCODING 84
SWIDTH 611 0
DWIDTH 10 0
BBX 10 10 2 0
BITMAP
ffc0
ccc0
8c80
1800
1800
1800
3000
3000
7000
f800
ENDCHAR
STARTCHAR U
ENCODING 85
SWIDTH 722 0
DWIDTH 10 0
BBX 11 10 1 0
BITMAP
7de0
30c0
3080
7180
6100
6100
e300
c200
c600
7c00
ENDCHAR
STARTCHAR V
ENCODING 86
SWIDTH 667 0
DWIDTH 10 0
BBX 10 10 1 0
BITMAP
f3c0
6180
6300
6200
6600
6400
2c00
3800
3800
3000
ENDCHAR
STARTCHAR W
ENCODING 87
SWIDTH 889 0
DWIDTH 13 0
BBX 14 10 1 0
BITMAP
f7bc
6318
6310
6330
6720
6760
2940
39c0
3180
3180
ENDCHAR
STARTCHAR X
ENCODING 88
SWIDTH 667 0
DWIDTH 9 0
BBX 10 10 0 0
BITMAP
7bc0
3180
1b00
1e00
0c00
0c00
1e00
3600
6300
f780
ENDCHAR
STARTCHAR Y
ENCODING 89
SWIDTH 611 0
DWIDTH 8 0
BBX 10 10 0 0
BITMAP
f3c0
6180
3300
3600
1c00
1800
1800
3000
3000
7800
ENDCHAR
STARTCHAR Z
ENCODING 90
SWIDTH 611 0
DWIDTH 8 0
BBX 9 10 0 0
BITMAP
3f80
3380
2300
0600
0c00
1800
3000
6100
e300
ff00
ENDCHAR
STARTCHAR bracketleft
ENCODING 91
SWIDTH 333 0
DWIDTH 6 0
BBX 7 13 0 -3
BITMAP
1e
18
18
30
30
30
60
60
60
c0
c0
c0
f0
ENDCHAR
STARTCHAR backslash
ENCODING 92
SWIDTH 278 0
DWIDTH 6 0
BBX 4 10 1 0
BITMAP
80
80
c0
40
40
20
20
30
10
10
ENDCHAR
STARTCHAR bracketright
ENCODING 93
SWIDTH 333 0
DWIDTH 5 0
BBX 7 13 -1 -3
BITMAP
1e
06
06
0c
0c
0c
18
18
18
30
30
30
f0
ENDCHAR
STARTCHAR asciicircum
ENCODING 94
SWIDTH 570 0
DWIDTH 8 0
BBX 7 6 0 4
BITMAP
10
38
6c
6c
c6
c6
ENDCHAR
STARTCHAR underscore
ENCODING 95
SWIDTH 500 0
DWIDTH 7 0
BBX 7 1 0 -2
BITMAP
fe
ENDCHAR
STARTCHAR grave
ENCODING 96
SWIDTH 333 0
DWIDTH 6 0
BBX 4 3 2 7
BITMAP
c0
60
10
ENDCHAR
STARTCHAR a
ENCODING 97
SWIDTH 500 0
DWIDTH 8 0
BBX 8 7 0 0
BITMAP
1a
76
66
cc
cc
fd
6e
ENDCHAR
STARTCHAR b
ENCODING 98
SWIDTH 500 0
DWIDTH 7 0
BBX 7 10 0 0
BITMAP
38
18
30
3c
76
66
66
cc
f8
60
ENDCHAR
STARTCHAR c
ENCODING 99
SWIDTH 444 0
DWIDTH 6 0
BBX 6 7 0 0
BITMAP
1c
74
60
c0
c0
e8
70
ENDCHAR
STARTCHAR d
ENCODING 100
SWIDTH 500 0
DWIDTH 7 0
BBX 8 10 0 0
BITMAP
07
03
06
3e
66
e4
cc
cc
f8
6c
ENDCHAR
STARTCHAR e
ENCODING 101
SWIDTH 444 0
DWIDTH 7 0
BBX 7 7 0 0
BITMAP
1c
76
66
fc
c0
ec
78
ENDCHAR
STARTCHAR f
ENCODING 102
SWIDTH 333 0
DWIDTH 5 0
BBX 9 13 -2 -3
BITMAP
0380
0680
0600
1f00
0c00
0c00
1800
1800
1800
3000
3000
b000
e000
ENDCHAR
STARTCHAR g
ENCODING 103
SWIDTH 500 0
DWIDTH 6 0
BBX 8 10 -1 -3
BITMAP
1f
36
66
66
3c
60
7c
ce
c6
7c
ENDCHAR
STARTCHAR h
ENCODING 104
SWIDTH 556 0
DWIDTH 8 0
BBX 8 10 0 0
BITMAP
38
18
30
36
3b
77
66
66
cc
ce
ENDCHAR
STARTCHAR i
ENCODING 105
SWIDTH 278 0
DWIDTH 4 0
BBX 5 10 0 0
BITMAP
18
18
00
70
30
60
60
c0
d0
e0
ENDCHAR
STARTCHAR j
ENCODING 106
SWIDTH 278 0
DWIDTH 4 0
BBX 7 13 -2 -3
BITMAP
06
06
00
1c
0c
08
18
18
18
30
30
a0
e0
ENDCHAR
STARTCHAR k
ENCODING 107
SWIDTH 500 0
DWIDTH 7 0
BBX 8 10 0 0
BITMAP
38
18
30
33
36
6c
78
6c
cc
ce
ENDCHAR
STARTCHAR l
ENCODING 108
SWIDTH 278 0
DWIDTH 4 0
BBX 5 10 0 0
BITMAP
38
18
30
30
30
60
60
c0
d0
60
ENDCHAR
STARTCHAR m
ENCODING 109
SWIDTH 778 0
DWIDTH 11 0
BBX 11 7 0 0
BITMAP
76c0
3fe0
6660
6660
66c0
ccc0
cce0
ENDCHAR
STARTCHAR n
ENCODING 110
SWIDTH 556 0
DWIDTH 8 0
BBX 8 7 0 0
BITMAP
76
3b
77
66
66
cc
ce
ENDCHAR
STARTCHAR o
ENCODING 111
SWIDTH 500 0
DWIDTH 7 0
BBX 7 7 0 0
BITMAP
1c
76
66
c6
cc
dc
70
ENDCHAR
STARTCHAR p
ENCODING 112
SWIDTH 500 0
DWIDTH 7 0
BBX 9 10 -2 -3
BITMAP
3700
1d80
1980
1980
3300
3300
3c00
6000
6000
f000
ENDCHAR
STARTCHAR q
ENCODING 113
SWIDTH 500 0
DWIDTH 7 0
BBX 7 10 0 -3
BITMAP
1e
36
66
6c
cc
dc
78
18
30
78
ENDCHAR
STARTCHAR r
ENCODING 114
SWIDTH 389 0
DWIDTH 6 0
BBX 7 7 0 0
BITMAP
6c
3e
74
60
60
c0
c0
ENDCHAR
STARTCHAR s
ENCODING 115
SWIDTH 389 0
DWIDTH 6 0
BBX 6 7 0 0
BITMAP
3c
6c
60
30
18
d8
f0
ENDCHAR
STARTCHAR t
ENCODING 116
SWIDTH 278 0
DWIDTH 4 0
BBX 6 9 0 0
BITMAP
10
30
7c
20
60
60
c0
d0
e0
ENDCHAR
STARTCHAR u
ENCODING 117
SWIDTH 556 0
DWIDTH 7 0
BBX 7 7 0 0
BITMAP
f6
66
6c
cc
c8
fa
6c
ENDCHAR
STARTCHAR v
ENCODING 118
SWIDTH 444 0
DWIDTH 6 0
BBX 7 7 0 0
BITMAP
ee
66
64
6c
68
70
40
ENDCHAR
STARTCHAR w
ENCODING 119
SWIDTH 667 0
DWIDTH 9 0
BBX 10 7 0 0
BITMAP
e5c0
6480
6d80
6d00
7e00
6c00
4800
ENDCHAR
STARTCHAR x
ENCODING 120
SWIDTH 500 0
DWIDTH 6 0
BBX 8 7 -1 0
BITMAP
77
32
1c
18
2c
66
ee
ENDCHAR
STARTCHAR y
ENCODING 121
SWIDTH 444 0
DWIDTH 6 0
BBX 7 10 -1 -3
BITMAP
76
32
36
34
3c
18
18
d0
f0
60
ENDCHAR
STARTCHAR z
ENCODING 122
SWIDTH 389 0
DWIDTH 6 0
BBX 6 7 0 0
BITMAP
7c
6c
58
30
60
e4
bc
ENDCHAR
STARTCHAR braceleft
ENCODING 123
SWIDTH 348 0
DWIDTH 7 0
BBX 8 13 0 -3
BITMAP
07
0c
18
18
18
30
c0
60
60
60
c0
c0
70
ENDCHAR
STARTCHAR bar
ENCODING 124
SWIDTH 220 0
DWIDTH 4 0
BBX 1 10 2 0
BITMAP
80
80
80
80
80
80
80
80
80
80
ENDCHAR
STARTCHAR braceright
ENCODING 125
SWIDTH 348 0
DWIDTH 7 0
BBX 8 13 -1 -3
BITMAP
0e
03
03
06
06
06
03
0c
18
18
18
30
e0
ENDCHAR
STARTCHAR asciitilde
ENCODING 126
SWIDTH 570 0
DWIDTH 10 0
BBX 8 2 1 3
BITMAP
79
9e
ENDCHAR
STARTCHAR nobreakspace
ENCODING 160
SWIDTH 250 0
DWIDTH 3 0
BBX 1 1 0 0
BITMAP
00
ENDCHAR
STARTCHAR Aogonek
ENCODING 161
SWIDTH 667 0
DWIDTH 9 0
BBX 10 13 -1 -3
BITMAP
0180
0380
0380
0580
0d80
0980
1f80
2180
6180
f3c0
0800
1200
1c00
ENDCHAR
STARTCHAR breve
ENCODING 162
SWIDTH 333 0
DWIDTH 7 0
BBX 5 2 2 8
BITMAP
88
70
ENDCHAR
STARTCHAR Lstroke
ENCODING 163
SWIDTH 611 0
DWIDTH 9 0
BBX 8 10 0 0
BITMAP
3c
18
1c
38
70
30
60
61
63
fe
ENDCHAR
STARTCHAR currency
ENCODING 164
SWIDTH 500 0
DWIDTH 8 0
BBX 6 6 1 2
BITMAP
cc
fc
48
48
fc
cc
ENDCHAR
STARTCHAR Lcaron
ENCODING 165
SWIDTH 792 0
DWIDTH 11 0
BBX 10 11 0 0
BITMAP
00c0
3cc0
1840
1980
3000
3000
3000
6000
6100
6300
fe00
ENDCHAR
STARTCHAR Sacute
ENCODING 166
SWIDTH 556 0
DWIDTH 8 0
BBX 9 14 0 0
BITMAP
0180
0300
0400
0000
1f80
3180
3100
3800
1c00
0e00
0600
8600
ce00
fc00
ENDCHAR
STARTCHAR section
ENCODING 167
SWIDTH 500 0
DWIDTH 8 0
BBX 8 13 0 -3
BITMAP
1e
33
33
18
2c
66
66
66
34
18
cc
cc
78
ENDCHAR
STARTCHAR diaeresis
ENCODING 168
SWIDTH 333 0
DWIDTH 6 0
BBX 5 1 2 8
BITMAP
d8
ENDCHAR
STARTCHAR Scaron
ENCODING 169
SWIDTH 556 0
DWIDTH 8 0
BBX 9 14 0 0
BITMAP
1100
0e00
0400
0000
1f80
3180
3100
3800
1c00
0e00
0600
8600
ce00
fc00
ENDCHAR
STARTCHAR Scedilla
ENCODING 170
SWIDTH 556 0
DWIDTH 8 0
BBX 9 13 0 -3
BITMAP
1f80
3180
3100
3800
1c00
0e00
0600
8600
ce00
fc00
0400
2600
1c00
ENDCHAR
STARTCHAR Tcaron
ENCODING 171
SWIDTH 611 0
DWIDTH 10 0
BBX 10 14 2 0
BITMAP
1100
0e00
0400
0000
ffc0
ccc0
8c80
1800
1800
1800
3000
3000
7000
f800
ENDCHAR
STARTCHAR Zacute
ENCODING 172
SWIDTH 611 0
DWIDTH 8 0
BBX 9 14 0 0
BITMAP
0180
0300
0400
0000
3f80
3380
2300
0600
0c00
1800
3000
6100
e300
ff00
ENDCHAR
STARTCHAR hyphen
ENCODING 173
SWIDTH 333 0
DWIDTH 5 0
BBX 4 1 0 3
BITMAP
f0
ENDCHAR
STARTCHAR Zcaron
ENCODING 174
SWIDTH 611 0
DWIDTH 8 0
BBX 9 14 0 0
BITMAP
1100
0e00
0400
0000
3f80
3380
2300
0600
0c00
1800
3000
6100
e300
ff00
ENDCHAR
STARTCHAR Zabovedot
ENCODING 175
SWIDTH 611 0
DWIDTH 8 0
BBX 9 12 0 0
BITMAP
0600
0000
3f80
3380
2300
0600
0c00
1800
3000
6100
e300
ff00
ENDCHAR
STARTCHAR degree
ENCODING 176
SWIDTH 400 0
DWIDTH 6 0
BBX 4 4 1 6
BITMAP
60
90
90
60
ENDCHAR
STARTCHAR aogonek
ENCODING 177
SWIDTH 500 0
DWIDTH 8 0
BBX 8 10 0 -3
BITMAP
1a
76
66
cc
cc
fd
6e
10
24
38
ENDCHAR
STARTCHAR ogonek
ENCODING 178
SWIDTH 333 0
DWIDTH 5 0
BBX 4 3 0 -3
BITMAP
40
90
e0
ENDCHAR
STARTCHAR lstroke
ENCODING 179
SWIDTH 278 0
DWIDTH 4 0
BBX 5 10 0 0
BITMAP
38
18
30
38
30
e0
60
c0
d0
60
ENDCHAR
STARTCHAR acute
ENCODING 180
SWIDTH 333 0
DWIDTH 6 0
BBX 4 3 2 7
BITMAP
30
60
80
ENDCHAR
STARTCHAR lcaron
ENCODING 181
SWIDTH 576 0
DWIDTH 8 0
BBX 9 11 0 0
BITMAP
0180
3980
1880
3300
3000
3000
6000
6000
c000
d000
6000
ENDCHAR
STARTCHAR sacute
ENCODING 182
SWIDTH 389 0
DWIDTH 6 0
BBX 7 11 0 0
BITMAP
06
0c
10
00
3c
6c
60
30
18
d8
f0
ENDCHAR
STARTCHAR caron
ENCODING 183
SWIDTH 333 0
DWIDTH 7 0
BBX 5 3 3 7
BITMAP
88
70
20
ENDCHAR
STARTCHAR cedilla
ENCODING 184
SWIDTH 333 0
DWIDTH 5 0
BBX 5 3 -2 -3
BITMAP
10
98
70
ENDCHAR
STARTCHAR scaron
ENCODING 185
SWIDTH 389 0
DWIDTH 6 0
BBX 6 11 0 0
BITMAP
44
38
10
00
3c
6c
60
30
18
d8
f0
ENDCHAR
STARTCHAR scedilla
ENCODING 186
SWIDTH 389 0
DWIDTH 6 0
BBX 6 10 0 -3
BITMAP
3c
6c
60
30
18
d8
f0
10
98
70
ENDCHAR
STARTCHAR tcaron
ENCODING 187
SWIDTH 432 0
DWIDTH 6 0
BBX 8 12 0 0
BITMAP
03
03
01
16
30
7c
20
60
60
c0
d0
e0
ENDCHAR
STARTCHAR zacute
ENCODING 188
SWIDTH 389 0
DWIDTH 6 0
BBX 7 11 0 0
BITMAP
06
0c
10
00
7c
6c
58
30
60
e4
bc
ENDCHAR
STARTCHAR doubleacute
ENCODING 189
SWIDTH 333 0
DWIDTH 7 0
BBX 6 3 2 7
BITMAP
6c
d8
90
ENDCHAR
STARTCHAR zcaron
ENCODING 190
SWIDTH 389 0
DWIDTH 6 0
BBX 6 11 0 0
BITMAP
44
38
10
00
7c
6c
58
30
60
e4
bc
ENDCHAR
STARTCHAR zabovedot
ENCODING 191
SWIDTH 389 0
DWIDTH 6 0
BBX 6 9 0 0
BITMAP
18
00
7c
6c
58
30
60
e4
bc
ENDCHAR
STARTCHAR Racute
ENCODING 192
SWIDTH 667 0
DWIDTH 10 0
BBX 10 14 0 0
BITMAP
00c0
0180
0200
0000
3f80
18c0
18c0
31c0
3f80
3600
3300
6300
6180
f1c0
ENDCHAR
STARTCHAR Aacute
ENCODING 193
SWIDTH 667 0
DWIDTH 9 0
BBX 10 13 -1 0
BITMAP
00c0
0180
0000
0180
0380
0380
0580
0d80
0980
1f80
2180
6180
f3c0
ENDCHAR
STARTCHAR Acircumflex
ENCODING 194
SWIDTH 667 0
DWIDTH 9 0
BBX 10 13 -1 0
BITMAP
0180
0240
0000
0180
0380
0380
0580
0d80
0980
1f80
2180
6180
f3c0
ENDCHAR
STARTCHAR Abreve
ENCODING 195
SWIDTH 667 0
DWIDTH 9 0
BBX 10 13 -1 0
BITMAP
0440
0380
0000
0180
0380
0380
0580
0d80
0980
1f80
2180
6180
f3c0
ENDCHAR
STARTCHAR Adiaeresis
ENCODING 196
SWIDTH 667 0
DWIDTH 9 0
BBX 10 13 -1 0
BITMAP
0240
0240
0000
0180
0380
0380
0580
0d80
0980
1f80
2180
6180
f3c0
ENDCHAR
STARTCHAR Lacute
ENCODING 197
SWIDTH 611 0
DWIDTH 9 0
BBX 8 14 0 0
BITMAP
03
06
08
00
3c
18
18
30
30
30
60
61
63
fe
ENDCHAR
STARTCHAR Cacute
ENCODING 198
SWIDTH 667 0
DWIDTH 9 0
BBX 9 14 1 0
BITMAP
0180
0300
0400
0000
1f80
3980
6100
6000
c000
c000
c000
c100
e600
7c00
ENDCHAR
STARTCHAR Ccedilla
ENCODING 199
SWIDTH 667 0
DWIDTH 9 0
BBX 9 13 1 -3
BITMAP
1f80
3980
6100
6000
c000
c000
c000
c100
e600
7c00
1000
9800
7000
ENDCHAR
STARTCHAR Ccaron
ENCODING 200
SWIDTH 667 0
DWIDTH 9 0
BBX 9 14 1 0
BITMAP
1100
0e00
0400
0000
1f80
3980
6100
6000
c000
c000
c000
c100
e600
7c00
ENDCHAR
STARTCHAR Eacute
ENCODING 201
SWIDTH 667 0
DWIDTH 10 0
BBX 10 13 0 0
BITMAP
0180
0300
0000
3fc0
18c0
1800
3100
3f00
3200
7000
6080
6180
ff00
ENDCHAR
STARTCHAR Eogonek
ENCODING 202
SWIDTH 667 0
DWIDTH 10 0
BBX 10 13 0 -3
BITMAP
3fc0
18c0
1800
3100
3f00
3200
7000
6080
6180
ff00
0800
1200
1c00
ENDCHAR
STARTCHAR Ediaeresis
ENCODING 203
SWIDTH 667 0
DWIDTH 10 0
BBX 10 13 0 0
BITMAP
0480
0480
0000
3fc0
18c0
1800
3100
3f00
3200
7000
6080
6180
ff00
ENDCHAR
STARTCHAR Ecaron
ENCODING 204
SWIDTH 667 0
DWIDTH 10 0
BBX 10 14 0 0
BITMAP
0880
0700
0200
0000
3fc0
18c0
1800
3100
3f00
3200
7000
6080
6180
ff00
ENDCHAR
STARTCHAR Iacute
ENCODING 205
SWIDTH 389 0
DWIDTH 5 0
BBX 8 13 -1 0
BITMAP
03
06
00
1f
0c
0c
18
18
18
30
30
30
f8
ENDCHAR
STARTCHAR Icircumflex
ENCODING 206
SWIDTH 389 0
DWIDTH 5 0
BBX 8 13 -1 0
BITMAP
06
09
00
1f
0c
0c
18
18
18
30
30
30
f8
ENDCHAR
STARTCHAR Dcaron
ENCODING 207
SWIDTH 722 0
DWIDTH 10 0
BBX 10 14 0 0
BITMAP
1100
0e00
0400
0000
3f00
1d80
18c0
30c0
30c0
30c0
6180
6180
6700
fc00
ENDCHAR
STARTCHAR Dstroke
ENCODING 208
SWIDTH 722 0
DWIDTH 10 0
BBX 10 10 0 0
BITMAP
3f00
1980
18c0
30c0
fcc0
30c0
2180
6180
6700
fc00
ENDCHAR
STARTCHAR Nacute
ENCODING 209
SWIDTH 722 0
DWIDTH 11 0
BBX 13 14 0 0
BITMAP
0060
00c0
0100
0000
3c78
1c30
1c20
1660
3640
2640
23c0
6380
4180
e180
ENDCHAR
STARTCHAR Ncaron
ENCODING 210
SWIDTH 722 0
DWIDTH 11 0
BBX 13 14 0 0
BITMAP
0440
0380
0100
0000
3c78
1c30
1c20
1660
3640
2640
23c0
6380
4180
e180
ENDCHAR
STARTCHAR Oacute
ENCODING 211
SWIDTH 722 0
DWIDTH 10 0
BBX 9 13 1 0
BITMAP
0300
0600
0000
1f00
3380
6180
6180
c180
c180
c300
c300
e600
7c00
ENDCHAR
STARTCHAR Ocircumflex
ENCODING 212
SWIDTH 722 0
DWIDTH 10 0
BBX 9 13 1 0
BITMAP
0600
0900
0000
1f00
3380
6180
6180
c180
c180
c300
c300
e600
7c00
ENDCHAR
STARTCHAR Odoubleacute
ENCODING 213
SWIDTH 722 0
DWIDTH 10 0
BBX 10 14 1 0
BITMAP
06c0
0d80
0900
0000
1f00
3380
6180
6180
c180
c180
c300
c300
e600
7c00
ENDCHAR
STARTCHAR Odiaeresis
ENCODING 214
SWIDTH 722 0
DWIDTH 10 0
BBX 9 13 1 0
BITMAP
0900
0900
0000
1f00
3380
6180
6180
c180
c180
c300
c300
e600
7c00
ENDCHAR
STARTCHAR multiply
ENCODING 215
SWIDTH 570 0
DWIDTH 9 0
BBX 8 7 0 0
BITMAP
c3
66
3c
18
3c
66
c3
ENDCHAR
STARTCHAR Rcaron
ENCODING 216
SWIDTH 667 0
DWIDTH 10 0
BBX 10 14 0 0
BITMAP
0880
0700
0200
0000
3f80
18c0
18c0
31c0
3f80
3600
3300
6300
6180
f1c0
ENDCHAR
STARTCHAR Uring
ENCODING 217
SWIDTH 722 0
DWIDTH 10 0
BBX 11 15 1 0
BITMAP
0300
0480
0480
0300
0000
7de0
30c0
3080
7180
6100
6100
e300
c200
c600
7c00
ENDCHAR
STARTCHAR Uacute
ENCODING 218
SWIDTH 722 0
DWIDTH 10 0
BBX 11 13 1 0
BITMAP
0180
0300
0000
7de0
30c0
3080
7180
6100
6100
e300
c200
c600
7c00
ENDCHAR
STARTCHAR Udoubleacute
ENCODING 219
SWIDTH 722 0
DWIDTH 10 0
BBX 11 14 1 0
BITMAP
0360
06c0
0480
0000
7de0
30c0
3080
7180
6100
6100
e300
c200
c600
7c00
ENDCHAR
STARTCHAR Udiaeresis
ENCODING 220
SWIDTH 722 0
DWIDTH 10 0
BBX 11 13 1 0
BITMAP
0880
0880
0000
7de0
30c0
3080
7180
6100
6100
e300
c200
c600
7c00
ENDCHAR
STARTCHAR Yacute
ENCODING 221
SWIDTH 611 0
DWIDTH 8 0
BBX 10 13 0 0
BITMAP
0300
0600
0000
f3c0
6180
3300
3600
1c00
1800
1800
3000
3000
7800
ENDCHAR
STARTCHAR Tcedilla
ENCODING 222
SWIDTH 611 0
DWIDTH 10 0
BBX 10 13 2 -3
BITMAP
ffc0
ccc0
8c80
1800
1800
1800
3000
3000
7000
f800
0400
2600
1c00
ENDCHAR
STARTCHAR ssharp
ENCODING 223
SWIDTH 500 0
DWIDTH 7 0
BBX 10 13 -3 -3
BITMAP
0380
06c0
04c0
0c80
0d80
0cc0
18c0
18c0
1980
1b00
3000
b000
e000
ENDCHAR
STARTCHAR racute
ENCODING 224
SWIDTH 389 0
DWIDTH 6 0
BBX 7 11 0 0
BITMAP
06
0c
10
00
6c
3e
74
60
60
c0
c0
ENDCHAR
STARTCHAR aacute
ENCODING 225
SWIDTH 500 0
DWIDTH 8 0
BBX 8 10 0 0
BITMAP
06
0c
00
1a
76
66
cc
cc
fd
6e
ENDCHAR
STARTCHAR acircumflex
ENCODING 226
SWIDTH 500 0
DWIDTH 8 0
BBX 8 11 0 0
BITMAP
04
0e
11
00
1a
76
66
cc
cc
fd
6e
ENDCHAR
STARTCHAR abreve
ENCODING 227
SWIDTH 500 0
DWIDTH 8 0
BBX 8 10 0 0
BITMAP
44
38
00
1a
76
66
cc
cc
fd
6e
ENDCHAR
STARTCHAR adiaeresis
ENCODING 228
SWIDTH 500 0
DWIDTH 8 0
BBX 8 10 0 0
BITMAP
0a
0a
00
1a
76
66
cc
cc
fd
6e
ENDCHAR
STARTCHAR lacute
ENCODING 229
SWIDTH 278 0
DWIDTH 4 0
BBX 7 14 0 0
BITMAP
06
0c
10
00
38
18
30
30
30
60
60
c0
d0
60
ENDCHAR
STARTCHAR cacute
ENCODING 230
SWIDTH 444 0
DWIDTH 6 0
BBX 7 11 0 0
BITMAP
06
0c
10
00
1c
74
60
c0
c0
e8
70
ENDCHAR
STARTCHAR ccedilla
ENCODING 231
SWIDTH 444 0
DWIDTH 6 0
BBX 7 10 -1 -3
BITMAP
0e
3a
30
60
60
74
38
10
98
70
ENDCHAR
STARTCHAR ccaron
ENCODING 232
SWIDTH 444 0
DWIDTH 6 0
BBX 6 11 0 0
BITMAP
44
38
10
00
1c
74
60
c0
c0
e8
70
ENDCHAR
STARTCHAR eacute
ENCODING 233
SWIDTH 444 0
DWIDTH 7 0
BBX 7 10 0 0
BITMAP
06
0c
00
1c
76
66
fc
c0
ec
78
ENDCHAR
STARTCHAR eogonek
ENCODING 234
SWIDTH 444 0
DWIDTH 7 0
BBX 7 10 0 -3
BITMAP
1c
76
66
fc
c0
ec
78
10
24
38
ENDCHAR
STARTCHAR ediaeresis
ENCODING 235
SWIDTH 444 0
DWIDTH 7 0
BBX 7 10 0 0
BITMAP
12
12
00
1c
76
66
fc
c0
ec
78
ENDCHAR
STARTCHAR ecaron
ENCODING 236
SWIDTH 444 0
DWIDTH 7 0
BBX 7 11 0 0
BITMAP
44
38
10
00
1c
76
66
fc
c0
ec
78
ENDCHAR
STARTCHAR iacute
ENCODING 237
SWIDTH 278 0
DWIDTH 4 0
BBX 5 10 0 0
BITMAP
18
30
00
70
30
60
60
c0
d0
e0
ENDCHAR
STARTCHAR icircumflex
ENCODING 238
SWIDTH 278 0
DWIDTH 4 0
BBX 6 11 0 0
BITMAP
10
38
44
00
70
30
60
60
c0
d0
e0
ENDCHAR
STARTCHAR dcaron
ENCODING 239
SWIDTH 792 0
DWIDTH 11 0
BBX 12 11 0 0
BITMAP
0030
0730
0310
0660
3e00
6600
e400
cc00
cc00
f800
6c00
ENDCHAR
STARTCHAR dstroke
ENCODING 240
SWIDTH 720 0
DWIDTH 10 0
BBX 11 10 0 0
BITMAP
0300
3fe0
0600
3e00
6600
e400
cc00
cc00
f800
6c00
ENDCHAR
STARTCHAR nacute
ENCODING 241
SWIDTH 556 0
DWIDTH 8 0
BBX 8 11 0 0
BITMAP
03
06
08
00
76
3b
77
66
66
cc
ce
ENDCHAR
STARTCHAR ncaron
ENCODING 242
SWIDTH 556 0
DWIDTH 8 0
BBX 8 11 0 0
BITMAP
22
1c
08
00
76
3b
77
66
66
cc
ce
ENDCHAR
STARTCHAR oacute
ENCODING 243
SWIDTH 500 0
DWIDTH 7 0
BBX 7 10 0 0
BITMAP
06
0c
00
1c
76
66
c6
cc
dc
70
ENDCHAR
STARTCHAR ocircumflex
ENCODING 244
SWIDTH 500 0
DWIDTH 7 0
BBX 7 11 0 0
BITMAP
08
1c
22
00
1c
76
66
c6
cc
dc
70
ENDCHAR
STARTCHAR odoubleacute
ENCODING 245
SWIDTH 500 0
DWIDTH 7 0
BBX 8 11 0 0
BITMAP
1b
36
24
00
1c
76
66
c6
cc
dc
70
ENDCHAR
STARTCHAR odiaeresis
ENCODING 246
SWIDTH 500 0
DWIDTH 7 0
BBX 7 10 0 0
BITMAP
12
12
00
1c
76
66
c6
cc
dc
70
ENDCHAR
STARTCHAR division
ENCODING 247
SWIDTH 570 0
DWIDTH 9 0
BBX 8 7 0 0
BITMAP
18
18
00
ff
00
18
18
ENDCHAR
STARTCHAR rcaron
ENCODING 248
SWIDTH 389 0
DWIDTH 6 0
BBX 7 11 0 0
BITMAP
44
38
10
00
6c
3e
74
60
60
c0
c0
ENDCHAR
STARTCHAR uring
ENCODING 249
SWIDTH 556 0
DWIDTH 7 0
BBX 7 12 0 0
BITMAP
18
24
24
18
00
f6
66
6c
cc
c8
fa
6c
ENDCHAR
STARTCHAR uacute
ENCODING 250
SWIDTH 556 0
DWIDTH 7 0
BBX 7 10 0 0
BITMAP
0c
18
00
f6
66
6c
cc
c8
fa
6c
ENDCHAR
STARTCHAR udoubleacute
ENCODING 251
SWIDTH 556 0
DWIDTH 7 0
BBX 8 11 0 0
BITMAP
1b
36
24
00
f6
66
6c
cc
c8
fa
6c
ENDCHAR
STARTCHAR udiaeresis
ENCODING 252
SWIDTH 556 0
DWIDTH 7 0
BBX 7 10 0 0
BITMAP
12
12
00
f6
66
6c
cc
c8
fa
6c
ENDCHAR
STARTCHAR yacute
ENCODING 253
SWIDTH 444 0
DWIDTH 6 0
BBX 7 12 -1 -2
BITMAP
06
0c
00
76
32
36
34
3c
18
18
d0
e0
ENDCHAR
STARTCHAR tcedilla
ENCODING 254
SWIDTH 278 0
DWIDTH 4 0
BBX 6 12 0 -3
BITMAP
10
30
7c
20
60
60
c0
d0
e0
10
98
70
ENDCHAR
STARTCHAR abovedot
ENCODING 255
SWIDTH 333 0
DWIDTH 5 0
BBX 2 1 3 8
BITMAP
c0
ENDCHAR
ENDFONT
